<svg version="1.1" xmlns="http://www.w3.org/2000/svg" xmlns:xlink="http://www.w3.org/1999/xlink" width="103.1473" height="77.81687" viewBox="0,0,103.1473,77.81687"><defs><radialGradient cx="214.332" cy="175.8047" r="51.57365" gradientUnits="userSpaceOnUse" id="color-1"><stop offset="0" stop-color="#ffffff"></stop><stop offset="1" stop-color="#1a1a1a"></stop></radialGradient><radialGradient cx="247.98421" cy="200.8482" r="42.24149" gradientUnits="userSpaceOnUse" id="color-2"><stop offset="0" stop-color="#ffffff"></stop><stop offset="1" stop-color="#1a1a1a"></stop></radialGradient></defs><g transform="translate(-208.9022,-149.26586)"><g data-paper-data="{&quot;isPaintingLayer&quot;:true}" fill-rule="nonzero" stroke="none" stroke-width="0.5" stroke-linecap="butt" stroke-linejoin="miter" stroke-miterlimit="10" stroke-dasharray="" stroke-dashoffset="0" style="mix-blend-mode: normal"><path d="M211.46243,207.78299c-2.5,0 -2.5,-2.5 -2.5,-2.5v-0.26087c0.07447,-1.30087 -0.29861,-2.70875 0.22342,-3.90261c0.48929,-1.11898 1.76367,-1.69091 2.60818,-2.57313c0.33014,-0.34488 0.61847,-0.66088 0.88018,-0.95462c-0.36599,-1.43548 -0.6567,-2.88501 -0.8275,-4.35255c-1.62999,-14.00536 0.61126,-29.23463 5.63019,-42.33199c0,0 0.89745,-2.33336 3.23081,-1.43592c2.33336,0.89745 1.43592,3.23081 1.43592,3.23081c-4.76807,12.34758 -6.82123,26.75641 -5.32952,39.96707c0.04066,0.36006 0.0898,0.71933 0.14656,1.07782c0.01344,-0.00796 0.02694,-0.01593 0.04049,-0.02392c3.04408,-1.79337 5.12399,-2.29764 7.95043,-4.67373c2.93088,-2.66257 6.27117,-4.92566 8.9181,-7.87869c2.70489,-3.0177 2.31139,-3.46026 5.87799,-6.09538c4.64974,-3.43538 11.21512,-5.37885 16.68626,-6.84341c9.69609,-2.59553 19.75203,-4.76102 29.71074,-6.01863c5.15026,-0.65039 10.08819,-0.66379 15.27437,-0.64769c1.80018,0.00559 3.67992,-0.49726 5.40046,0.03228c0.12805,0.03941 0.25424,0.08291 0.37875,0.1301l0.01136,-0.03409l3.07575,1.02525c1.02156,0.31417 1.76412,1.26534 1.76412,2.38994c0,0.92388 -0.50115,1.7307 -1.24643,2.16347l-3.3014,1.9939c-7.12829,5.765 -12.71691,13.2635 -18.23995,20.57672c-4.63781,6.14106 -9.02304,13.73494 -15.39056,18.31681c-2.2595,1.62587 -5.1186,2.18993 -7.68581,3.26613c-4.62145,1.93736 -9.19877,4.15209 -13.88853,5.9123c-6.93786,2.604 -14.70469,4.03344 -20.92955,8.17861c-1.72341,0.51294 -3.3863,1.76434 -5.17023,1.53883c-1.55441,-0.19649 -2.80305,-1.52492 -3.8611,-2.68048c-3.83444,-4.18776 -4.49954,-11.11264 -6.2115,-16.24423c-0.60058,-1.80024 -1.26168,-3.60749 -1.88631,-5.43034c-0.21449,0.12029 -0.39831,0.26589 -0.4991,0.48482c-0.2579,0.56017 0.14895,1.22435 0.22342,1.83653v0.26087c0,0 0,2.5 -2.5,2.5zM218.23322,198.93489c0.81036,2.57717 1.80314,5.11476 2.63499,7.6162c1.3145,3.95283 1.95438,7.97568 3.78735,11.70189c0.47953,0.97484 0.93726,1.96408 1.49862,2.89421c0.22062,0.36555 0.40782,0.98581 0.83455,0.9717c0.79532,-0.0263 1.42275,-0.71324 2.13412,-1.06987c6.36769,-4.25001 14.31752,-5.72715 21.41698,-8.39179c4.63062,-1.73802 9.1493,-3.92944 13.71243,-5.84237c2.29096,-0.96041 4.88026,-1.38151 6.88853,-2.84362c5.81483,-4.23346 9.87977,-11.51507 14.13128,-17.14189c5.33432,-7.0599 10.71929,-14.14452 17.35252,-19.96693c-2.17867,0.06523 -4.56371,-0.29605 -6.20555,-0.29688c-6.55738,-0.0033 -12.89167,0.88685 -19.30895,2.2191c-9.55555,1.98375 -19.29198,3.46784 -28.26985,7.40149c-1.10756,0.48528 -4.94462,2.03957 -6.18476,2.95667c-2.86241,2.11678 -2.75015,2.8057 -5.07854,5.38289c-2.8,3.0992 -6.25933,5.49215 -9.34279,8.29524c-1.13445,0.93839 -2.18461,1.9892 -3.40335,2.81517c-1.61868,1.09703 -3.63982,1.46158 -5.34189,2.42415c-0.50602,0.28617 -0.90902,0.5757 -1.2557,0.87463z" fill="url(#color-1)"></path><path d="M219.43913,198.06478c1.70207,-0.96257 3.72304,-1.32983 5.34172,-2.42686c1.21873,-0.82598 2.26892,-1.88096 3.40337,-2.81935c3.08346,-2.80309 6.54679,-5.21341 9.3468,-8.31261c2.32839,-2.5772 2.22407,-3.27888 5.08648,-5.39566c1.24014,-0.9171 5.0883,-2.48104 6.19586,-2.96632c8.97786,-3.93364 18.76853,-5.41746 28.32407,-7.40121c6.41729,-1.33224 12.76383,-2.21107 19.32121,-2.20777c1.64184,0.00083 4.02919,0.36537 6.20786,0.30014c-6.63323,5.82241 -12.01224,12.91984 -17.34656,19.97974c-4.25151,5.62682 -8.32713,12.95633 -14.14196,17.18979c-2.00827,1.46211 -4.6201,1.89759 -6.91106,2.85799c-4.56313,1.91293 -9.12022,4.10055 -13.75084,5.83856c-7.09945,2.66465 -15.06357,4.13023 -21.43126,8.38025c-0.71137,0.35662 -1.33922,1.04306 -2.13455,1.06936c-0.42673,0.01411 -0.61486,-0.6073 -0.83548,-0.97285c-0.56135,-0.93013 -1.02127,-1.92239 -1.5008,-2.89723c-1.83297,-3.72621 -2.47906,-7.7621 -3.79356,-11.71494c-0.83184,-2.50144 -1.82656,-5.04837 -2.63692,-7.62553c0.34668,-0.29893 0.74959,-0.58935 1.25562,-0.87552z" data-paper-data="{&quot;noHover&quot;:false,&quot;origItem&quot;:[&quot;Path&quot;,{&quot;applyMatrix&quot;:true,&quot;segments&quot;:[[[218.23322,198.93489],[0.34668,-0.29893],[0.81036,2.57717]],[[220.86821,206.55109],[-0.83184,-2.50144],[1.3145,3.95283]],[[224.65556,218.25299],[-1.83297,-3.72621],[0.47953,0.97484]],[[226.15418,221.1472],[-0.56135,-0.93013],[0.22062,0.36555]],[[226.98873,222.1189],[-0.42673,0.01411],[0.79532,-0.0263]],[[229.12285,221.04903],[-0.71137,0.35662],[6.36769,-4.25001]],[[250.53983,212.65724],[-7.09945,2.66465],[4.63062,-1.73802]],[[264.25227,206.81487],[-4.56313,1.91293],[2.29096,-0.96041]],[[271.14079,203.97125],[-2.00827,1.46211],[5.81483,-4.23346]],[[285.27208,186.82936],[-4.25151,5.62682],[5.33432,-7.0599]],[[302.6246,166.86243],[-6.63323,5.82241],[-2.17867,0.06523]],[[296.41905,166.56555],[1.64184,0.00083],[-6.55738,-0.0033]],[[277.1101,168.78465],[6.41729,-1.33224],[-9.55555,1.98375]],[[248.84026,176.18614],[8.97786,-3.93364],[-1.10756,0.48528]],[[242.6555,179.1428],[1.24014,-0.9171],[-2.86241,2.11678]],[[237.57696,184.5257],[2.32839,-2.5772],[-2.8,3.0992]],[[228.23416,192.82094],[3.08346,-2.80309],[-1.13445,0.93839]],[[224.83081,195.63611],[1.21873,-0.82598],[-1.61868,1.09703]],[[219.48893,198.06026],[1.70207,-0.96257],[-0.50602,0.28617]]],&quot;closed&quot;:true}]}" fill="url(#color-2)"></path></g></g></svg>