<svg version="1.1" xmlns="http://www.w3.org/2000/svg" xmlns:xlink="http://www.w3.org/1999/xlink" width="52.49572" height="49.99363" viewBox="0,0,52.49572,49.99363"><g transform="translate(-233.00428,-142.375)"><g data-paper-data="{&quot;isPaintingLayer&quot;:true}" fill-rule="nonzero" stroke="none" stroke-width="0.5" stroke-linecap="butt" stroke-linejoin="miter" stroke-miterlimit="10" stroke-dasharray="" stroke-dashoffset="0" style="mix-blend-mode: normal"><path d="M247.58931,164.49503c-0.27478,1.47099 -0.6142,2.75171 -0.61844,2.77316c-0.63856,3.23024 -1.21303,6.47417 -1.70635,9.72976c-0.17092,1.12796 -0.3922,2.24978 -0.55788,3.37834c0.21627,-0.04867 0.43475,-0.1109 0.6549,-0.1871c1.36478,-4.46156 3.36166,-10.79431 2.27694,-15.49368c-0.01606,-0.06958 -0.03246,-0.13639 -0.04917,-0.20047zM239.8095,178.72522c0.20489,-1.70103 0.48253,-3.41141 0.79511,-5.11581c-0.51549,0.24558 -1.64738,0.61758 -2.63376,-0.21737c0.05009,0.816 0.28819,1.62965 0.46722,2.42994c0.25899,1.15774 0.73549,2.14087 1.37144,2.90324zM239.217,166.65113c0.75678,-3.39572 1.03542,-5.92473 5.00821,-7.91764c0.73152,-1.45398 1.62868,-2.79774 3.05028,-3.3484c1.37631,-0.53311 2.31927,1.82632 3.49228,2.72213c2.95039,2.25318 4.2095,3.30216 6.16089,6.67478c-0.25601,5.69111 -1.61706,15.03419 -6.96102,18.61686c-0.10169,0.06817 -0.20439,0.13469 -0.30804,0.19955c-0.24965,1.12197 -0.518,2.23549 -1.12805,3.18929c-1.37406,2.14828 -2.68606,5.49445 -5.23479,5.57901c-3.23251,0.10725 -3.84581,-4.32877 -3.8746,-7.66295c-1.90503,-0.76041 -3.55871,-2.13151 -4.6366,-4.16851c-1.10922,-2.0962 -1.90619,-6.28164 -1.76508,-8.47958c0.06075,-0.94619 0.89648,-1.71402 1.02463,-2.65345c0.71218,-5.22084 -0.20871,-10.35569 1.02344,-15.60864c0.82173,-3.50321 1.94475,-5.33718 1.93145,-8.91859c0,0 0,-2.5 2.5,-2.5c2.5,0 2.5,2.5 2.5,2.5c-0.01225,3.89279 -1.19265,6.37109 -2.06855,10.08141c-0.92582,3.92179 -0.61814,7.7926 -0.71446,11.69472z" fill="#2ee4ff"></path><path d="M275.57114,178.87567c-0.71455,0.99933 -2.07114,0.99933 -2.07114,0.99933l-1.31009,-0.01931l-3.9671,-0.49589c-0.65718,-0.07249 -1.23763,-0.39971 -1.64045,-0.88075c-2.10662,-0.50659 -4.1519,-1.33436 -6.24322,-1.91699c-2.97793,-0.82963 -7.05068,-1.73543 -9.72822,-3.41961l-4.54277,-1.9469c-0.91919,-0.36945 -1.56816,-1.26922 -1.56816,-2.32056c0,-1.38071 1.11929,-2.5 2.5,-2.5l1.99982,0c0.28457,-0.37885 0.67426,-0.67423 1.12578,-0.84282l2.44593,-0.97837l0.06819,0.17046l0.38752,-0.30416c7.10319,-0.0704 15.61301,0.47078 22.09333,3.72009c0.7433,0.3727 1.4205,0.78596 2.04817,1.2333c0.44141,0.0009 0.8852,0.00121 1.33188,0.00151h2.49939c1.38071,0 2.5,1.11929 2.5,2.5c0,0.62935 -0.23255,1.20439 -0.61642,1.64387l1.19029,0.59787c0.84331,0.40174 1.42613,1.26193 1.42613,2.25826c0,1.38071 -1.11929,2.5 -2.5,2.5c-0.17123,0 -0.33845,-0.01722 -0.5,-0.05001c-0.16155,0.03279 -0.32877,0.05001 -0.5,0.05001h-3c-0.1786,0 -1.64951,0.00102 -3.42886,0.00067z" fill="#90681a"></path></g></g></svg>