<svg version="1.1" xmlns="http://www.w3.org/2000/svg" xmlns:xlink="http://www.w3.org/1999/xlink" width="54.51194" height="14.10146" viewBox="0,0,54.51194,14.10146"><g transform="translate(-216,-171.68017)"><g data-paper-data="{&quot;isPaintingLayer&quot;:true}" fill="#ffffff" fill-rule="nonzero" stroke="none" stroke-width="0.5" stroke-linecap="butt" stroke-linejoin="miter" stroke-miterlimit="10" stroke-dasharray="" stroke-dashoffset="0" style="mix-blend-mode: normal"><path d="M218,177.375c0,-2.5 2.5,-2.5 2.5,-2.5c5.5563,0 11.40882,-0.24919 16.90046,0.53228c1.0889,0.15495 2.11375,0.36494 3.12846,0.55647c2.51434,0.05999 5.05156,0.13234 7.58842,0.15554c3.85345,-0.71519 7.43117,-2.33469 11.07132,-3.60898c1.91582,-0.67066 9.63264,-1.67249 10.88151,0.46311c1.69016,2.89022 -1.91501,6.42107 -3.33023,8.19673c-0.93981,0.6764 -1.72226,1.65909 -2.81942,2.0292c-1.96711,0.66356 -7.68088,0.67439 -9.80432,1.10221c-0.92786,0.18694 -1.71687,0.85123 -2.64655,1.02892c-5.17161,0.98846 -11.70841,0.04451 -16.96965,0.04451c-4.9271,0 -9.20254,0.18036 -13.84118,-1.64516l-2.8947,-0.9649c-1.02156,-0.31417 -1.76412,-1.26534 -1.76412,-2.38994c0,-1.1246 0.74256,-2.07576 1.76412,-2.38994l0.27545,-0.09182c-0.02569,-0.15956 -0.03957,-0.33196 -0.03957,-0.51824z"></path></g></g></svg>